<?xml version="1.0" encoding="utf-8"?>
<!-- Generator: Adobe Illustrator 16.0.0, SVG Export Plug-In . SVG Version: 6.00 Build 0)  -->
<!DOCTYPE svg PUBLIC "-//W3C//DTD SVG 1.1//EN" "http://www.w3.org/Graphics/SVG/1.1/DTD/svg11.dtd">
<svg version="1.1" id="Capa_1" xmlns="http://www.w3.org/2000/svg" xmlns:xlink="http://www.w3.org/1999/xlink" x="0px" y="0px"
	 width="239.025px" height="240.441px" viewBox="-290.987 0 239.025 240.441" enable-background="new -290.987 0 239.025 240.441"
	 xml:space="preserve">
<rect x="-0.348" y="0.347" transform="matrix(-1 -0.0029 0.0029 -1 238.6904 240.7763)" opacity="0.4" fill="#454545" enable-background="new    " width="239.736" height="239.736"/>
<g>
	<path fill="#FFFFFF" d="M110.957,58.146c3.438,0,6.875,0,10.313,0c0.253,0.116,0.498,0.307,0.761,0.336
		c6.313,0.706,12.171,2.589,17.854,5.573c11.495,6.032,20.217,14.604,25.903,26.264c0.505,1.04,0.894,2.136,1.483,3.558
		c-4.159,0-7.84,0-11.636,0c0,9.525,0,18.822,0,28.12c0,9.285,0,18.569,0,28.083c-2.796,0-5.387-0.286-7.895,0.051
		c-9.446,1.27-16.523,8.101-17.422,15.914c-0.067,0.603-1.076,1.431-1.771,1.577c-15.126,3.23-29.41,1.571-42.43-7.407
		c-12.12-8.358-20.708-18.976-24.051-33.8c-6.705-29.749,11.464-59.597,41.141-66.707C105.769,59.093,108.373,58.662,110.957,58.146
		z M115.944,88.454c-13.723-0.238-25.084,10.871-25.444,24.88c-0.353,13.663,10.953,25.34,24.751,25.568
		c13.934,0.229,25.372-10.859,25.655-24.874C141.188,100.202,129.958,88.697,115.944,88.454z"/>
	<path fill="#FFFFFF" d="M187.865,118.727c-1.412,5.275-3.408,10.302-6.419,14.891c-0.585,0.892-1.183,1.776-2.066,2.55
		c0.452-1.565,1.07-3.104,1.321-4.704c0.51-3.233,1.207-6.51,1.131-9.751c-0.166-7.114-5.456-11.411-12.982-10.667
		c0,0.789,0,1.616,0,2.444c0,17.037-0.48,34.093,0.172,51.104c0.431,11.214-10.534,19.007-20.702,17.085
		c-3.96-0.748-7.549-2.205-10.427-5.119c-5.14-5.205-5.156-12.76,0.165-17.809c5.337-5.063,11.782-6.085,18.779-4.517
		c0.753,0.168,1.498,0.382,2.554,0.654c0-19.171,0-38.151,0-57.413c5.197,0.303,10.083,0.471,14.619,2.74
		c0.829,0.414,1.731,0.675,2.593,1.027c5.692,2.335,9.69,6.224,11.264,12.326C187.865,115.291,187.865,117.009,187.865,118.727z"/>
	<path fill="#FFFFFF" d="M115.674,136.011c-12.272-0.015-22.262-9.985-22.299-22.256c-0.037-12.332,10.061-22.471,22.357-22.449
		c12.313,0.021,22.366,10.172,22.29,22.509C137.95,126.1,127.952,136.028,115.674,136.011z M115.767,99.658
		c-7.778-0.037-14.085,6.236-14.093,14.015c-0.005,7.672,6.208,13.975,13.86,14.059c7.746,0.085,14.125-6.166,14.211-13.933
		C129.834,106.063,123.54,99.695,115.767,99.658z"/>
</g>
<rect x="-291.045" y="0.352" transform="matrix(-1 -0.0029 0.0029 -1 -342.701 239.9435)" opacity="0.4" fill="#454545" enable-background="new    " width="239.736" height="239.736"/>
<g>
	<path fill-rule="evenodd" clip-rule="evenodd" fill="#FFFFFF" d="M-171.633,233.893c-15.648-0.232-31.294-0.573-46.789-3.079
		c-9.452-1.529-18.827-3.462-27.341-8.078c-2.843-1.543-5.523-3.538-7.913-5.726c-3.343-3.063-4.977-7.117-4.901-11.677
		c0.059-3.523-0.056-7.157,0.756-10.538c1.584-6.597,6.327-11.185,11.264-15.465c7.846-6.802,16.838-11.825,26.154-16.244
		c5.846-2.773,11.836-5.276,17.88-7.591c7.793-2.986,10.442-11.073,6.876-19.374c-0.228-0.529-0.717-0.958-1.122-1.4
		c-10.221-11.167-16.649-24.317-19.935-38.987c-2.583-11.534-2.64-23.122,1.131-34.454c5.235-15.731,16.019-25.688,32.191-29.317
		c14.215-3.189,27.697-1.12,39.71,7.537c9.398,6.771,14.697,16.261,17.001,27.467c2.279,11.079,1.54,22.041-1.488,32.919
		c-3.402,12.223-8.875,23.371-17.336,32.844c-3.393,3.799-4.193,8.078-4.092,12.745c0.114,5.229,2.626,8.636,7.784,10.382
		c12.946,4.38,25.405,9.866,36.814,17.505c6.029,4.038,11.661,8.524,15.833,14.593c2.572,3.742,3.992,7.83,3.888,12.404
		c-0.015,0.669-0.05,1.342,0.005,2.006c0.824,9.823-4.322,15.998-12.451,20.313c-7.827,4.155-16.321,6.192-24.963,7.727
		C-138.871,233.281-155.25,233.628-171.633,233.893z"/>
</g>
</svg>
